<svg height="512" viewBox="0 0 512 512" width="512" xmlns="http://www.w3.org/2000/svg">
    <g id="_14-wind_energy" data-name="14-wind energy">
        <path d="m457.76 347.82c-9.374-8.411-23.07-19.176-40.706-32-25.909-18.834-54.161-37.663-69.821-47.934a92.039 92.039 0 0 0 -55.905-96.83c-1.065-18.683-3.247-52.554-6.61-84.45-2.286-21.683-4.763-38.924-7.362-51.246-2.472-11.728-6.611-31.36-21.356-31.36s-18.884 19.632-21.356 31.362c-2.6 12.322-5.076 29.563-7.362 51.246-3.363 31.9-5.545 65.767-6.61 84.45a92.039 92.039 0 0 0 -55.9 96.83c-15.66 10.271-43.912 29.1-69.821 47.934-17.636 12.822-31.332 23.587-40.706 32-8.923 8.008-23.857 21.409-16.481 34.18 3.327 5.763 9.037 7.656 15.349 7.656 7.677 0 16.246-2.8 22.5-4.844 11.975-3.914 28.152-10.394 48.079-19.259 29.531-13.138 60.854-28.66 76.446-36.511a91.891 91.891 0 0 0 26.362 14.106l-14.446 151.712a12 12 0 0 0 10.808 13.084q.581.055 1.153.055a12 12 0 0 0 11.931-10.863l14.22-149.328c1.93.121 3.874.19 5.834.19s3.9-.069 5.834-.19l14.22 149.328a12 12 0 0 0 11.931 10.862q.571 0 1.153-.055a12 12 0 0 0 10.808-13.084l-14.446-151.711a91.891 91.891 0 0 0 26.366-14.108c15.592 7.851 46.915 23.373 76.447 36.511 19.926 8.865 36.1 15.345 48.078 19.259 6.255 2.044 14.823 4.844 22.5 4.844 6.311 0 12.022-1.893 15.349-7.655 7.377-12.772-7.557-26.173-16.48-34.181zm-207.494-249.983c2.017-20.62 3.981-35.456 5.734-46.114 1.753 10.658 3.717 25.494 5.734 46.114 2.423 24.747 4.141 49.784 5.175 66.813a91.868 91.868 0 0 0 -21.818 0c1.034-17.029 2.752-42.066 5.175-66.813zm-128.345 242.2c-18.888 8.573-32.727 14.3-42.84 18.108 8.356-6.849 20.226-15.969 37.082-28.03 20.2-14.455 41.038-28.467 55.277-37.882a92.081 92.081 0 0 0 10.932 18.867c-15.248 7.616-37.772 18.642-60.451 28.934zm66.079-84.037a68 68 0 1 1 68 68 68.077 68.077 0 0 1 -68-68zm202.079 84.034c-22.674-10.292-45.2-21.318-60.451-28.931a92.081 92.081 0 0 0 10.932-18.873c14.24 9.415 35.074 23.427 55.277 37.882 16.856 12.061 28.726 21.181 37.082 28.03-10.113-3.813-23.952-9.535-42.84-18.108z"/><path d="m272 244h-14.275l9.417-23.543a12 12 0 1 0 -22.284-8.914l-16 40a12 12 0 0 0 11.142 16.457h14.275l-9.417 23.543a12 12 0 1 0 22.284 8.914l16-40a12 12 0 0 0 -11.142-16.457z"/><path d="m187.2 98.317a172.7 172.7 0 0 0 -84.831 80.276c-6.624 15.019 14.094 24.233 21.426 10.814a148.64 148.64 0 0 1 73.015-69.1 12 12 0 0 0 -9.61-21.993z"/><path d="m41.333 244a12 12 0 0 0 11.913-10.683c9.154-82.766 69.372-152.85 149.854-174.395a12 12 0 1 0 -6.2-23.184 228.195 228.195 0 0 0 -167.5 194.944c-.716 6.695 4.608 13.39 11.933 13.318z"/><path d="m412.427 291.866c18.46 1.494 14.36-23.766 15.573-35.866a170.543 170.543 0 0 0 -34.394-103.208 12 12 0 0 0 -19.189 14.415 146.716 146.716 0 0 1 29.583 88.793c1.435 12.2-8.411 32.349 8.427 35.866z"/>
        <path d="m365.786 56.127a12 12 0 1 0 -11.572 21.025 204.35 204.35 0 0 1 98.864 231.748c-3.408 16.076 18.773 20.837 23.184 6.206a228.35 228.35 0 0 0 -110.476-258.979z"/>
    </g>    
</svg>