<?xml version="1.0" encoding="iso-8859-1"?>
<!-- Generator: Adobe Illustrator 19.0.0, SVG Export Plug-In . SVG Version: 6.00 Build 0)  -->
<svg version="1.1" id="Capa_1" xmlns="http://www.w3.org/2000/svg" xmlns:xlink="http://www.w3.org/1999/xlink" x="0px" y="0px"
	 viewBox="0 0 511.998 511.998" style="enable-background:new 0 0 511.998 511.998;" xml:space="preserve">
<linearGradient id="SVGID_1_" gradientUnits="userSpaceOnUse" x1="-0.007" y1="258.0553" x2="511.9177" y2="258.0553" gradientTransform="matrix(1.0001 0 0 -1.0001 0.007 514.0909)">
	<stop  offset="0" style="stop-color:#ffffff"/>
	<stop  offset="1" style="stop-color:#ffffff"/>
</linearGradient>
<path style="fill:url(#SVGID_1_);" d="M27.046,274.068c3.292-77.339,45.476-147.036,112.841-186.44
	c9.535-5.577,21.787-2.369,27.366,7.167c5.578,9.536,2.369,21.788-7.167,27.366c-55.567,32.503-90.36,89.927-93.071,153.609
	c-0.458,10.748-9.315,19.153-19.97,19.153c-0.288,0-0.575-0.006-0.865-0.019C35.142,294.434,26.576,285.106,27.046,274.068z
	 M342.617,450.264c-26.83,14.185-57.172,21.683-87.748,21.683c-31.833,0-63.67-8.449-92.072-24.432
	c-9.627-5.419-21.824-2.006-27.242,7.621c-5.418,9.627-2.006,21.824,7.621,27.242c34.379,19.348,73.001,29.575,111.693,29.575
	c37.069,0,73.879-9.102,106.447-26.323c9.766-5.164,13.498-17.266,8.334-27.033C364.486,448.831,352.382,445.099,342.617,450.264z
	 M358.102,127.603c51.62,33.98,83.3,90.723,84.74,151.788c0.257,10.884,9.16,19.531,19.988,19.531c0.16,0,0.321-0.002,0.481-0.005
	c11.044-0.261,19.786-9.425,19.526-20.469c-0.881-37.341-11.053-74.103-29.414-106.307c-17.725-31.088-43.08-58.044-73.324-77.953
	c-9.227-6.075-21.632-3.518-27.706,5.71C346.318,109.124,348.875,121.529,358.102,127.603z M507.061,424.803
	c-7.005,12.621-20.202,20.387-34.554,20.387c-0.22,0-0.438-0.001-0.658-0.005c-27.017-0.445-78.536-11.695-170.546-62.765
	c-7.518-4.173-11.625-12.107-10.064-20.546c0.176-1.562,1.148-12.927-5.595-26.119c-102.698,60.3-194.896,98.373-233.293,111.392
	c-4.145,1.405-8.404,2.079-12.613,2.079c-13.751,0-26.998-7.182-34.246-19.502c-7.431-12.629-7.313-28.218,0.308-40.683
	c14.23-23.275,50.164-62.184,140.548-115.362c7.436-4.376,16.404-3.86,22.884,1.815c1.258,0.957,10.74,7.778,25.764,8.622
	c-0.107-143.64,19.239-241.71,21.453-252.454c3.77-18.289,20.055-31.587,38.723-31.619c14.662-0.037,28.045,7.959,34.945,20.836
	c19.306,36.026,28.758,93.067,28.897,174.383c0.015,8.61-4.969,16.082-13.117,18.818c-1.448,0.594-12.224,5.342-20.656,17.752
	c103.433,57.665,182.484,117.389,213.054,143.753C512.432,387.783,516.119,408.481,507.061,424.803z M235.179,283.948
	c0,11.03,8.973,20.003,20.003,20.003c11.03,0,20.003-8.973,20.003-20.003c0-11.03-8.973-20.003-20.003-20.003
	C244.153,263.946,235.179,272.919,235.179,283.948z M235.998,227.103c2.436-0.824,4.938-1.505,7.502-2.013
	c9.409-21.764,24.501-34.711,35.412-41.703c-0.938-66.458-8.834-114.37-23.504-142.559
	C252.887,53.336,239.746,122.775,235.998,227.103z M215.765,329.137c-2.021-1.765-3.924-3.663-5.693-5.681
	c-23.489,2.959-42.178-3.377-53.679-9.187C75.763,363.042,48.848,395.872,40.56,408.9
	C69.767,398.888,137.064,371.444,215.765,329.137z M471.317,405.155c-23.397-20.042-81.002-63.956-157.157-110.193
	c-0.511,2.74-1.208,5.414-2.078,8.01c14.133,18.518,18.151,37.491,19.033,50.161C414.373,398.06,456.036,404.623,471.317,405.155z"
	/>
<g>
</g>
<g>
</g>
<g>
</g>
<g>
</g>
<g>
</g>
<g>
</g>
<g>
</g>
<g>
</g>
<g>
</g>
<g>
</g>
<g>
</g>
<g>
</g>
<g>
</g>
<g>
</g>
<g>
</g>
</svg>
